<?xml version="1.0" encoding="UTF-8" standalone="no"?>
<!DOCTYPE svg PUBLIC "-//W3C//DTD SVG 1.1//EN" "http://www.w3.org/Graphics/SVG/1.1/DTD/svg11.dtd">
<!-- Created with Vectornator (http://vectornator.io/) -->
<svg height="100%" stroke-miterlimit="10" style="fill-rule:nonzero;clip-rule:evenodd;stroke-linecap:round;stroke-linejoin:round;" version="1.1" viewBox="0 0 32 32" width="100%" xml:space="preserve" xmlns="http://www.w3.org/2000/svg" xmlns:xlink="http://www.w3.org/1999/xlink">
<defs/>
<clipPath id="ArtboardFrame">
<rect height="32" width="32" x="0" y="0"/>
</clipPath>
<g clip-path="url(#ArtboardFrame)" id="Layer-1">
<path d="M7.09754 0.0800705C7.14347 0.332144 7.22182 0.599046 7.25964 0.640564C7.27045 0.652426 7.27856 0.682082 7.27856 0.702841C7.27856 0.726565 7.3488 0.913396 7.43796 1.12099C7.91078 2.25384 8.44303 2.8944 9.40217 3.49938C9.80474 3.75442 9.99656 3.90566 10.3532 4.26153C10.9908 4.89319 11.6312 5.91928 11.8689 6.6933C11.9392 6.92165 11.9527 7.01358 11.9527 7.24489C11.9527 7.48214 11.9419 7.54145 11.8824 7.6749C11.7689 7.92994 11.4934 8.1405 11.107 8.27691C10.8017 8.38367 10.5261 8.33326 9.8966 8.06043C9.57779 7.92401 9.23466 7.72828 8.43763 7.2271C7.82702 6.84454 7.57846 6.74964 7.21101 6.75261C6.57879 6.75854 6.21135 7.19151 6.30861 7.81725C6.36265 8.17312 6.54907 8.50526 6.82736 8.73658C7.0462 8.92044 7.10294 8.9323 8.0891 9.01534C8.40791 9.04203 8.78346 9.08651 9.4535 9.17548C9.84256 9.2259 10.0209 9.30893 10.2235 9.52542C10.4234 9.73894 10.4937 9.88425 10.4937 10.0859C10.4937 10.4714 10.2127 10.7265 9.41027 11.0646C9.21034 11.1476 8.95637 11.2484 8.8456 11.284C8.73482 11.3226 8.47815 11.4086 8.27822 11.4768C7.87295 11.6161 7.82702 11.628 7.57575 11.6992C7.38393 11.7555 7.24343 11.7911 7.07592 11.8326C7.01648 11.8475 6.86518 11.886 6.7382 11.9186C6.53016 11.972 6.37345 12.0017 5.92766 12.0758C5.73043 12.1055 5.03066 12.1826 4.72536 12.2033C4.50111 12.2182 4.10394 12.2567 3.26639 12.3397C2.96379 12.3694 2.70712 12.408 2.28023 12.491C1.90198 12.5622 1.26436 12.8884 0.94014 13.1731C0.710487 13.3747 0.426799 13.7128 0.275498 13.9619C0.140408 14.1843 0.0485469 14.4661 0.0215289 14.7389C-0.0108926 15.0473-0.00548903 15.7205 0.0296343 15.9696C0.11339 16.5776 0.597012 17.4702 1.04281 17.8379C1.24274 18.004 1.57236 18.1493 1.83443 18.1849C2.71792 18.3094 3.32313 18.179 3.84727 17.743C4.15528 17.488 4.66322 16.8504 5.16035 16.1031C6.09787 14.6855 6.62472 14.1547 7.12455 14.1221C7.45687 14.0983 7.66761 14.2555 7.7919 14.6084C7.84323 14.7567 7.85404 14.8427 7.85404 15.1837C7.85674 15.5188 7.84864 15.6137 7.8 15.7709C7.61628 16.3522 7.21371 16.9067 6.71388 17.2656C6.46261 17.4465 5.81959 17.7905 5.22519 18.0663C4.27686 18.5052 3.78783 18.7958 3.34204 19.1932C3.06645 19.4393 3.00701 19.5016 2.91245 19.6617C2.8368 19.7922 2.8341 19.8011 2.8368 20.1956C2.8368 20.584 2.8395 20.6018 2.92056 20.7798C3.04484 21.0496 3.14481 21.1949 3.36095 21.4352C3.85268 21.9749 4.28226 21.9808 4.92799 21.4618C5.45754 21.0348 6.50854 19.6588 7.25964 18.4132C7.60547 17.8379 7.7919 17.6481 8.12422 17.5265C8.36738 17.4376 8.64296 17.4554 8.86721 17.574C9.11037 17.7015 9.35354 17.9981 9.51835 18.3628C9.594 18.5319 9.66965 18.7424 9.68586 18.8314C9.72368 19.0301 9.70207 19.3415 9.61831 19.8397C9.43999 20.8806 9.43999 20.8806 9.53185 21.0793C9.71558 21.4796 10.31 21.8088 10.7558 21.7554C11.0449 21.7228 11.1259 21.6991 11.2529 21.6161C11.3988 21.5152 11.4988 21.361 11.5933 21.0882C11.7716 20.5633 11.9175 20.3142 12.1229 20.1837C12.3606 20.0295 12.6092 20.0562 12.7929 20.2578C12.9469 20.4269 12.9415 20.5099 12.693 21.45C12.5795 21.877 12.4768 22.2715 12.4633 22.3219C12.439 22.4227 12.4201 22.485 12.3417 22.7756C12.3174 22.8646 12.2877 22.9862 12.2769 23.0425C12.2661 23.0988 12.2282 23.2471 12.1985 23.3687C12.1661 23.4903 12.131 23.6386 12.1148 23.6949C12.0769 23.8432 11.8824 24.549 11.7852 24.8812C11.7095 25.1421 11.5177 25.7263 11.4258 25.9843C11.4042 26.0466 11.3664 26.1534 11.3421 26.2216C11.3177 26.2928 11.288 26.3758 11.2772 26.4084C11.2475 26.4944 10.98 27.2299 10.953 27.2981C10.9395 27.3307 10.8963 27.4434 10.8557 27.5502C10.6261 28.1492 9.63182 30.2133 9.28599 30.8034C9.23736 30.8894 9.19683 30.9635 9.19683 30.9695C9.19683 30.9754 9.08336 31.2008 8.94286 31.4677C8.80237 31.7346 8.6943 31.9629 8.6997 31.9748C8.70781 31.9896 9.34543 31.9985 10.1154 31.9985C11.7311 31.9985 11.5528 32.043 11.6014 31.6427C11.6176 31.5033 11.642 31.3164 11.6555 31.2275C11.669 31.1385 11.6987 30.9161 11.723 30.7382C11.7473 30.5573 11.777 30.3319 11.7906 30.234C11.8041 30.1361 11.8338 29.9226 11.8581 29.7595C11.8797 29.5964 11.9175 29.3295 11.9392 29.1664C11.9986 28.7423 12.0337 28.511 12.0742 28.2916C12.0932 28.1848 12.1229 28.0187 12.1418 27.9209C12.158 27.823 12.1877 27.6569 12.2093 27.5502C12.231 27.4434 12.2553 27.3159 12.2634 27.2684C12.3012 27.0668 12.3282 26.9304 12.3714 26.7346C12.3958 26.619 12.4255 26.4737 12.439 26.4084C12.4714 26.2335 12.6713 25.4061 12.747 25.1332C12.9145 24.5371 12.982 24.3118 13.0739 24.036C13.1279 23.8729 13.1901 23.6801 13.2144 23.606C13.236 23.5318 13.2711 23.431 13.2901 23.3835C13.309 23.3331 13.363 23.1908 13.4116 23.0633C13.6548 22.399 13.9628 21.8207 14.2141 21.5538C14.3924 21.364 14.4626 21.3373 14.6491 21.3966C14.7733 21.4381 14.8301 21.4826 15.003 21.6724C15.2462 21.9452 15.3623 22.1499 15.4704 22.5028C15.5407 22.7252 15.5542 22.8171 15.565 23.176C15.5731 23.4221 15.565 23.686 15.5461 23.8284C15.5298 23.9589 15.5055 24.1457 15.492 24.2436C15.4704 24.4096 15.4461 24.5194 15.3407 24.9316C15.2975 25.0976 15.2759 25.1896 15.2245 25.3912C15.211 25.4446 15.1462 25.6967 15.0786 25.9488C14.9544 26.4262 14.93 26.533 14.8544 26.966C14.7571 27.5442 14.8733 28.2234 15.1462 28.6563C15.2408 28.8016 15.3758 28.8876 15.6325 28.9647C15.8541 29.03 15.9405 29.0389 16.3593 29.0389C16.6322 29.0389 16.897 29.027 16.9807 29.0063C17.2914 28.9321 17.3752 28.9025 17.5103 28.8194C17.8615 28.6029 17.9128 28.4309 17.9074 27.4464C17.902 26.9126 17.8912 26.7435 17.848 26.5093C17.7642 26.0852 17.5319 25.5069 17.1617 24.7981C16.9645 24.4245 16.8807 24.1665 16.8429 23.8343C16.7673 23.1285 16.9564 22.3901 17.3319 21.9363C17.4778 21.7614 17.5346 21.7169 17.7831 21.5864C17.9398 21.5063 18.0911 21.4174 18.1182 21.3907C18.1452 21.364 18.2127 21.3373 18.2695 21.3314C18.3235 21.3254 18.3992 21.3076 18.437 21.2928C18.4748 21.278 18.7126 21.2602 18.9638 21.2483C20.6335 21.1801 22.1601 20.7738 23.7055 19.9909C25.767 18.9441 27.5609 17.2685 28.8038 15.2282C29.5279 14.039 30.1493 12.5622 30.4059 11.4293C30.5572 10.7502 30.6302 9.84274 30.5924 9.08355C30.5572 8.33622 30.4816 7.82911 30.3087 7.15593C30.26 6.95723 30.2249 6.77633 30.233 6.75261C30.2411 6.72888 30.4194 6.53019 30.6302 6.31074C30.8409 6.09129 31.2354 5.67018 31.5083 5.37955L32 4.84871L32 4.65891C32 4.43946 31.9325 4.31194 31.7785 4.23187C31.7298 4.20815 31.0706 4.01539 30.3114 3.8078C28.9632 3.44006 28.9254 3.43117 28.5741 3.41634L28.2175 3.40448L28.0284 3.21765C27.0422 2.24494 25.7426 1.53913 24.408 1.24554C23.8811 1.12988 23.5596 1.09133 22.9787 1.0765C21.3792 1.02905 19.7798 1.53913 18.4127 2.5326C18.21 2.68088 17.9993 2.82619 17.9425 2.86178C17.8102 2.94185 17.567 3.16427 17.3211 3.4282C17.186 3.57648 17.0915 3.65062 17.0185 3.67434C16.6187 3.79593 16.081 3.67731 15.8243 3.40448C15.6865 3.25916 15.6217 2.95074 15.5704 2.21232C15.5407 1.74969 15.4866 1.38196 15.3921 1.00829C15.3704 0.919328 15.3407 0.797739 15.3299 0.738428C15.3056 0.643529 15.1894 0.323247 15.0949 0.0948983L15.0543 0L14.387 0L13.7196 0L13.644 0.272833C13.6008 0.424077 13.5386 0.64946 13.5062 0.771049C13.3711 1.25147 13.3522 1.39085 13.3657 1.84162C13.3738 2.24197 13.4143 2.63639 13.4657 2.87661C13.6629 3.77221 13.6899 3.93828 13.6764 4.14587C13.6602 4.37422 13.6116 4.50767 13.4765 4.67967C13.3657 4.82202 13.1415 4.95251 13.0091 4.95251C12.6686 4.94954 12.2147 4.63816 11.7608 4.08952C11.5096 3.78407 11.0692 3.11682 10.9314 2.82619C10.672 2.28349 10.5288 1.63403 10.3424 0.139382L10.3235 0L8.7051 0L7.08403 0L7.09754 0.0800705ZM29.028 4.37422C29.1847 4.41574 29.3549 4.46319 29.4063 4.47801C29.4576 4.49581 29.744 4.57291 30.0412 4.65595C30.6275 4.81906 30.7031 4.84575 30.7031 4.89616C30.7031 4.92582 30.2033 5.46852 29.4954 6.20398C29.3441 6.36412 29.1604 6.52426 29.0875 6.56578C28.4742 6.90682 27.7312 6.53612 27.5528 5.80066C27.4448 5.36176 27.6015 4.84278 27.9257 4.56105C28.2364 4.29415 28.5282 4.24373 29.028 4.37422ZM21.1523 5.14527C21.255 5.16899 21.4036 5.22237 21.4819 5.26389C21.6386 5.34989 21.8953 5.5901 21.8953 5.65238C21.8953 5.70576 21.8115 5.75025 21.5873 5.81252C21.4819 5.84218 21.2982 5.89556 21.1793 5.93115C20.7902 6.04977 20.4795 6.1417 20.2877 6.19805C20.0986 6.25143 19.8878 6.31667 19.288 6.4946C18.8558 6.62509 18.8206 6.63102 18.799 6.57171C18.7666 6.47978 19.1827 5.9519 19.5231 5.65535C20.0229 5.21644 20.6362 5.02665 21.1523 5.14527ZM26.1317 5.59307C26.5667 5.78583 26.7018 6.37598 26.4073 6.7882C26.2911 6.9513 26.1722 7.01655 25.7859 7.12924C25.6454 7.16779 25.3239 7.26269 25.0699 7.33683C24.8186 7.41097 24.5187 7.49993 24.408 7.53255C24.2972 7.56518 23.9757 7.66007 23.692 7.74014C23.0841 7.91511 22.8895 7.97146 22.4221 8.11084C22.2303 8.16719 21.9736 8.24133 21.8548 8.27691C21.7359 8.3125 21.6035 8.35105 21.563 8.36588C21.4144 8.4163 21.4333 8.46671 21.2468 7.5029C21.1523 6.99875 21.1469 6.89496 21.2144 6.8653C21.2387 6.8564 21.4252 6.80006 21.6251 6.74075C21.825 6.68144 22.1492 6.5895 22.3411 6.53316C22.5356 6.47681 22.7788 6.40564 22.8814 6.37598C22.9868 6.34633 23.1408 6.29888 23.23 6.27515C23.6947 6.13577 23.8892 6.07646 23.9757 6.04977C24.5376 5.87777 25.6697 5.55155 25.7588 5.53672C25.8534 5.51893 26.0263 5.54562 26.1317 5.59307ZM20.2958 7.21227C20.3093 7.23303 20.3282 7.28938 20.3363 7.33979C20.3499 7.42876 20.412 7.76387 20.5174 8.30064C20.5471 8.45485 20.566 8.60609 20.5552 8.63575C20.5471 8.6654 20.5093 8.69802 20.4687 8.70692C20.4282 8.71582 20.3769 8.73065 20.3553 8.73954C20.3336 8.74844 20.2472 8.77216 20.1661 8.79589C20.0851 8.81961 19.9014 8.87299 19.7609 8.91451C19.6204 8.95603 19.3151 9.04203 19.0854 9.10727C18.8558 9.17252 18.5829 9.25259 18.4829 9.28224C18.3829 9.31486 18.283 9.33266 18.2614 9.32376C18.2046 9.29707 18.1803 9.07465 18.183 8.57051C18.1857 8.10788 18.2235 7.79946 18.283 7.74311C18.3019 7.72828 18.4127 7.68676 18.5315 7.65118C18.9665 7.52366 19.3718 7.408 19.4231 7.40207C19.4529 7.39614 19.4961 7.38428 19.5177 7.37241C19.596 7.33683 20.1526 7.17965 20.2094 7.17965C20.2418 7.17669 20.2796 7.19448 20.2958 7.21227ZM21.7251 9.32969C21.7467 9.39493 21.5684 9.66777 21.3279 9.93467C20.6227 10.7235 19.7419 10.9934 19.0773 10.6286C18.8747 10.5159 18.6477 10.2965 18.6585 10.2223C18.6666 10.1541 18.7045 10.1423 19.7473 9.8457C20.9037 9.51356 21.5008 9.34155 21.5846 9.31486C21.7007 9.27631 21.7062 9.27631 21.7251 9.32969ZM26.5748 10.9548C27.1152 11.0942 27.3043 11.8208 26.9152 12.2478C26.7801 12.3961 26.6396 12.4554 26.4127 12.4554C26.1911 12.4554 26.0642 12.402 25.921 12.2419C25.7886 12.0995 25.7318 11.9394 25.7318 11.711C25.7318 11.2781 25.9696 10.9993 26.4073 10.9163C26.4154 10.9163 26.491 10.9311 26.5748 10.9548ZM23.7136 14.6381C23.8892 14.7033 24.0648 14.8961 24.1243 15.0918C24.2404 15.4744 24.0891 15.8895 23.7703 16.0615C23.619 16.1416 23.2975 16.1386 23.1516 16.0526C22.8166 15.8569 22.6734 15.4269 22.822 15.0592C22.9733 14.6826 23.3542 14.5046 23.7136 14.6381ZM19.7257 16.3522C19.977 16.4886 20.0932 16.708 20.0932 17.0402C20.0932 17.2151 20.0824 17.2745 20.0175 17.4049C19.8743 17.6926 19.5582 17.8646 19.2907 17.7964C19.0044 17.7223 18.799 17.5117 18.7315 17.2181C18.6477 16.8445 18.8341 16.4589 19.1692 16.3136C19.3529 16.2335 19.5393 16.2484 19.7257 16.3522Z" fill="#ffffff" fill-rule="nonzero" opacity="1" stroke="none"/>
</g>
</svg>
