<?xml version="1.0" standalone="no"?>
<!DOCTYPE svg PUBLIC "-//W3C//DTD SVG 20010904//EN"
 "http://www.w3.org/TR/2001/REC-SVG-20010904/DTD/svg10.dtd">
<svg version="1.0" xmlns="http://www.w3.org/2000/svg"
 width="1920.000000pt" height="1080.000000pt" viewBox="0 0 1920.000000 1080.000000"
 preserveAspectRatio="xMidYMid meet">

<g transform="translate(0.000000,1080.000000) scale(0.100000,-0.100000)"
fill="#000000" stroke="none">
<path d="M5563 10773 c17 -85 46 -175 60 -189 4 -4 7 -14 7 -21 0 -8 26 -71
59 -141 175 -382 372 -598 727 -802 149 -86 220 -137 352 -257 236 -213 473
-559 561 -820 26 -77 31 -108 31 -186 0 -80 -4 -100 -26 -145 -42 -86 -144
-157 -287 -203 -113 -36 -215 -19 -448 73 -118 46 -245 112 -540 281 -226 129
-318 161 -454 160 -234 -2 -370 -148 -334 -359 20 -120 89 -232 192 -310 81
-62 102 -66 467 -94 118 -9 257 -24 505 -54 144 -17 210 -45 285 -118 74 -72
100 -121 100 -189 0 -130 -104 -216 -401 -330 -74 -28 -168 -62 -209 -74 -41
-13 -136 -42 -210 -65 -150 -47 -167 -51 -260 -75 -71 -19 -123 -31 -185 -45
-22 -5 -78 -18 -125 -29 -77 -18 -135 -28 -300 -53 -73 -10 -332 -36 -445 -43
-83 -5 -230 -18 -540 -46 -112 -10 -207 -23 -365 -51 -140 -24 -376 -134 -496
-230 -85 -68 -190 -182 -246 -266 -50 -75 -84 -170 -94 -262 -12 -104 -10
-331 3 -415 31 -205 210 -506 375 -630 74 -56 196 -105 293 -117 327 -42 551
2 745 149 114 86 302 301 486 553 347 478 542 657 727 668 123 8 201 -45 247
-164 19 -50 23 -79 23 -194 1 -113 -2 -145 -20 -198 -68 -196 -217 -383 -402
-504 -93 -61 -331 -177 -551 -270 -351 -148 -532 -246 -697 -380 -102 -83
-124 -104 -159 -158 -28 -44 -29 -47 -28 -180 0 -131 1 -137 31 -197 46 -91
83 -140 163 -221 182 -182 341 -184 580 -9 196 144 585 608 863 1028 128 194
197 258 320 299 90 30 192 24 275 -16 90 -43 180 -143 241 -266 28 -57 56
-128 62 -158 14 -67 6 -172 -25 -340 -66 -351 -66 -351 -32 -418 68 -135 288
-246 453 -228 107 11 137 19 184 47 54 34 91 86 126 178 66 177 120 261 196
305 88 52 180 43 248 -25 57 -57 55 -85 -37 -402 -42 -144 -80 -277 -85 -294
-9 -34 -16 -55 -45 -153 -9 -30 -20 -71 -24 -90 -4 -19 -18 -69 -29 -110 -12
-41 -25 -91 -31 -110 -14 -50 -86 -288 -122 -400 -28 -88 -99 -285 -133 -372
-8 -21 -22 -57 -31 -80 -9 -24 -20 -52 -24 -63 -11 -29 -110 -277 -120 -300
-5 -11 -21 -49 -36 -85 -85 -202 -453 -898 -581 -1097 -18 -29 -33 -54 -33
-56 0 -2 -42 -78 -94 -168 -52 -90 -92 -167 -90 -171 3 -5 239 -8 524 -8 598
0 532 -15 550 120 6 47 15 110 20 140 5 30 16 105 25 165 9 61 20 137 25 170
5 33 16 105 25 160 8 55 22 145 30 200 22 143 35 221 50 295 7 36 18 92 25
125 6 33 17 89 25 125 8 36 17 79 20 95 14 68 24 114 40 180 9 39 20 88 25
110 12 59 86 338 114 430 62 201 87 277 121 370 20 55 43 120 52 145 8 25 21
59 28 75 7 17 27 65 45 108 90 224 204 419 297 509 66 64 92 73 161 53 46 -14
67 -29 131 -93 90 -92 133 -161 173 -280 26 -75 31 -106 35 -227 3 -83 0 -172
-7 -220 -6 -44 -15 -107 -20 -140 -8 -56 -17 -93 -56 -232 -16 -56 -24 -87
-43 -155 -5 -18 -29 -103 -54 -188 -46 -161 -55 -197 -83 -343 -36 -195 7
-424 108 -570 35 -49 85 -78 180 -104 82 -22 114 -25 269 -25 101 0 199 4 230
11 115 25 146 35 196 63 130 73 149 131 147 463 -2 180 -6 237 -22 316 -31
143 -117 338 -254 577 -73 126 -104 213 -118 325 -28 238 42 487 181 640 54
59 75 74 167 118 58 27 114 57 124 66 10 9 35 18 56 20 20 2 48 8 62 13 14 5
102 11 195 15 618 23 1183 160 1755 424 763 353 1427 918 1887 1606 268 401
498 899 593 1281 56 229 83 535 69 791 -13 252 -41 423 -105 650 -18 67 -31
128 -28 136 3 8 69 75 147 149 78 74 224 216 325 314 l182 179 0 64 c0 74 -25
117 -82 144 -18 8 -262 73 -543 143 -499 124 -513 127 -643 132 l-132 4 -70
63 c-365 328 -846 566 -1340 665 -195 39 -314 52 -529 57 -592 16 -1184 -156
-1690 -491 -75 -50 -153 -99 -174 -111 -49 -27 -139 -102 -230 -191 -50 -50
-85 -75 -112 -83 -148 -41 -347 -1 -442 91 -51 49 -75 153 -94 402 -11 156
-31 280 -66 406 -8 30 -19 71 -23 91 -9 32 -52 140 -87 217 l-15 32 -247 0
-247 0 -28 -92 c-16 -51 -39 -127 -51 -168 -50 -162 -57 -209 -52 -361 3 -135
18 -268 37 -349 73 -302 83 -358 78 -428 -6 -77 -24 -122 -74 -180 -41 -48
-124 -92 -173 -92 -126 1 -294 106 -462 291 -93 103 -256 328 -307 426 -96
183 -149 402 -218 906 l-7 47 -599 0 -600 0 5 -27z m8117 -1448 c58 -14 121
-30 140 -35 19 -6 125 -32 235 -60 217 -55 245 -64 245 -81 0 -10 -185 -193
-447 -441 -56 -54 -124 -108 -151 -122 -227 -115 -502 10 -568 258 -40 148 18
323 138 418 115 90 223 107 408 63z m-2915 -260 c38 -8 93 -26 122 -40 58 -29
153 -110 153 -131 0 -18 -31 -33 -114 -54 -39 -10 -107 -28 -151 -40 -144 -40
-259 -71 -330 -90 -70 -18 -148 -40 -370 -100 -160 -44 -173 -46 -181 -26 -12
31 142 209 268 309 185 148 412 212 603 172z m1843 -151 c161 -65 211 -264
102 -403 -43 -55 -87 -77 -230 -115 -52 -13 -171 -45 -265 -70 -93 -25 -204
-55 -245 -66 -41 -11 -160 -43 -265 -70 -225 -59 -297 -78 -470 -125 -71 -19
-166 -44 -210 -56 -44 -12 -93 -25 -108 -30 -55 -17 -48 -34 -117 291 -35 170
-37 205 -12 215 9 3 78 22 152 42 74 20 194 51 265 70 72 19 162 43 200 53 39
10 96 26 129 34 172 47 244 67 276 76 208 58 627 168 660 173 35 6 99 -3 138
-19z m-2160 -546 c5 -7 12 -26 15 -43 5 -30 28 -143 67 -324 11 -52 18 -103
14 -113 -3 -10 -17 -21 -32 -24 -15 -3 -34 -8 -42 -11 -8 -3 -40 -11 -70 -19
-30 -8 -98 -26 -150 -40 -52 -14 -165 -43 -250 -65 -85 -22 -186 -49 -223 -59
-37 -11 -74 -17 -82 -14 -21 9 -30 84 -29 254 1 156 15 260 37 279 7 5 48 19
92 31 161 43 311 82 330 84 11 2 27 6 35 10 29 12 235 65 256 65 12 1 26 -5
32 -11z m529 -714 c8 -22 -58 -114 -147 -204 -261 -266 -587 -357 -833 -234
-75 38 -159 112 -155 137 3 23 17 27 403 127 428 112 649 170 680 179 43 13
45 13 52 -5z m1795 -548 c200 -47 270 -292 126 -436 -50 -50 -102 -70 -186
-70 -82 0 -129 18 -182 72 -49 48 -70 102 -70 179 0 146 88 240 250 268 3 0
31 -5 62 -13z m-1059 -1242 c65 -22 130 -87 152 -153 43 -129 -13 -269 -131
-327 -56 -27 -175 -26 -229 3 -124 66 -177 211 -122 335 56 127 197 187 330
142z m-1476 -578 c93 -46 136 -120 136 -232 0 -59 -4 -79 -28 -123 -53 -97
-170 -155 -269 -132 -106 25 -182 96 -207 195 -31 126 38 256 162 305 68 27
137 22 206 -13z"/>
</g>
</svg>
